<svg width="30" height="30" viewBox="0 0 30 30" fill="none" xmlns="http://www.w3.org/2000/svg">
<circle cx="15" cy="15" r="15" fill="#36ACF2"/>
<mask id="path-2-inside-1_864_581" fill="white">
<path d="M21.174 8.00103C21.0189 8.00851 20.868 8.05597 20.7319 8.11591C20.5971 8.17545 19.8214 8.53949 18.6759 9.07801C17.5305 9.61652 16.0414 10.3178 14.5654 11.0131C11.6132 12.4039 8.71227 13.7722 8.71227 13.7722L8.73342 13.7634C8.73342 13.7634 8.55833 13.8277 8.38082 13.9637C8.29206 14.0317 8.19657 14.1195 8.11838 14.2475C8.0402 14.3755 7.98304 14.5569 8.00458 14.7487C8.08024 15.4226 8.71538 15.6137 8.71538 15.6137L8.71787 15.6151L11.5524 16.6818C11.6246 16.9469 12.4121 19.8368 12.5853 20.4488C12.681 20.7872 12.7705 20.9824 12.8639 21.1155C12.9106 21.1821 12.9596 21.2337 13.0138 21.2714C13.0353 21.2864 13.0579 21.2976 13.0803 21.3077C13.0808 21.3079 13.0811 21.3074 13.0816 21.3077C13.0843 21.309 13.0869 21.3091 13.0896 21.3104L13.0822 21.3083C13.0874 21.3107 13.0925 21.3145 13.0977 21.3165C13.1078 21.3204 13.114 21.3203 13.127 21.3234C13.4516 21.448 13.7202 21.2167 13.7202 21.2167L13.7314 21.2071L15.4727 19.4313L18.2985 21.854L18.3339 21.8718C18.8285 22.1133 19.2758 21.9785 19.5236 21.7569C19.7713 21.5353 19.8687 21.2495 19.8687 21.2495L19.8793 21.2194L21.9557 9.31938C22.0088 9.05315 22.0164 8.82303 21.9663 8.61508C21.9162 8.40713 21.7944 8.22636 21.6417 8.12616C21.4889 8.02597 21.3291 7.99355 21.174 8.00103ZM21.1908 8.71286C21.2538 8.70965 21.3005 8.71757 21.3152 8.72722C21.3299 8.73687 21.3365 8.7356 21.3506 8.79423C21.3647 8.85286 21.3724 8.97636 21.3338 9.16963L21.3326 9.17374L19.268 21.0047C19.2631 21.0166 19.2201 21.1261 19.1218 21.214C19.0216 21.3036 18.9102 21.3736 18.6144 21.2372L15.5243 18.5875L15.4372 18.5123L15.4354 18.5144L14.5112 17.7519L19.7045 11.0337C19.7444 10.9822 19.7699 10.9191 19.7779 10.852C19.7859 10.7849 19.776 10.7167 19.7495 10.6557C19.723 10.5946 19.681 10.5433 19.6285 10.508C19.5761 10.4727 19.5154 10.4548 19.4539 10.4565C19.3938 10.4583 19.3354 10.4786 19.2854 10.5153L11.7707 16.024L8.9318 14.9552C8.9318 14.9552 8.6499 14.7827 8.63641 14.6625C8.63566 14.6559 8.63233 14.6619 8.64698 14.6379C8.66163 14.614 8.69845 14.5735 8.74461 14.5381C8.83694 14.4674 8.94237 14.4246 8.94237 14.4246L8.95294 14.4205L8.96351 14.4157C8.96351 14.4157 11.8646 13.0473 14.8166 11.6566C16.2926 10.9613 17.7814 10.2605 18.9266 9.72214C20.0715 9.1839 20.8987 8.79648 20.9688 8.76551C21.0485 8.7304 21.1278 8.71607 21.1908 8.71286ZM17.7469 12.4847L13.8085 17.5796L13.8067 17.5817C13.8005 17.5898 13.7947 17.5982 13.7893 17.607C13.783 17.6164 13.7772 17.6263 13.7718 17.6364C13.7497 17.6777 13.7355 17.7235 13.7302 17.7711C13.7302 17.772 13.7302 17.7729 13.7302 17.7738L13.2171 20.3107C13.2086 20.2833 13.2026 20.2733 13.1935 20.2409C13.0305 19.6652 12.2876 16.9391 12.1848 16.5621L17.7469 12.4847ZM14.2532 18.4145L14.9609 18.9985L13.9211 20.0584L14.2532 18.4145Z"/>
</mask>
<path d="M21.174 8.00103C21.0189 8.00851 20.868 8.05597 20.7319 8.11591C20.5971 8.17545 19.8214 8.53949 18.6759 9.07801C17.5305 9.61652 16.0414 10.3178 14.5654 11.0131C11.6132 12.4039 8.71227 13.7722 8.71227 13.7722L8.73342 13.7634C8.73342 13.7634 8.55833 13.8277 8.38082 13.9637C8.29206 14.0317 8.19657 14.1195 8.11838 14.2475C8.0402 14.3755 7.98304 14.5569 8.00458 14.7487C8.08024 15.4226 8.71538 15.6137 8.71538 15.6137L8.71787 15.6151L11.5524 16.6818C11.6246 16.9469 12.4121 19.8368 12.5853 20.4488C12.681 20.7872 12.7705 20.9824 12.8639 21.1155C12.9106 21.1821 12.9596 21.2337 13.0138 21.2714C13.0353 21.2864 13.0579 21.2976 13.0803 21.3077C13.0808 21.3079 13.0811 21.3074 13.0816 21.3077C13.0843 21.309 13.0869 21.3091 13.0896 21.3104L13.0822 21.3083C13.0874 21.3107 13.0925 21.3145 13.0977 21.3165C13.1078 21.3204 13.114 21.3203 13.127 21.3234C13.4516 21.448 13.7202 21.2167 13.7202 21.2167L13.7314 21.2071L15.4727 19.4313L18.2985 21.854L18.3339 21.8718C18.8285 22.1133 19.2758 21.9785 19.5236 21.7569C19.7713 21.5353 19.8687 21.2495 19.8687 21.2495L19.8793 21.2194L21.9557 9.31938C22.0088 9.05315 22.0164 8.82303 21.9663 8.61508C21.9162 8.40713 21.7944 8.22636 21.6417 8.12616C21.4889 8.02597 21.3291 7.99355 21.174 8.00103ZM21.1908 8.71286C21.2538 8.70965 21.3005 8.71757 21.3152 8.72722C21.3299 8.73687 21.3365 8.7356 21.3506 8.79423C21.3647 8.85286 21.3724 8.97636 21.3338 9.16963L21.3326 9.17374L19.268 21.0047C19.2631 21.0166 19.2201 21.1261 19.1218 21.214C19.0216 21.3036 18.9102 21.3736 18.6144 21.2372L15.5243 18.5875L15.4372 18.5123L15.4354 18.5144L14.5112 17.7519L19.7045 11.0337C19.7444 10.9822 19.7699 10.9191 19.7779 10.852C19.7859 10.7849 19.776 10.7167 19.7495 10.6557C19.723 10.5946 19.681 10.5433 19.6285 10.508C19.5761 10.4727 19.5154 10.4548 19.4539 10.4565C19.3938 10.4583 19.3354 10.4786 19.2854 10.5153L11.7707 16.024L8.9318 14.9552C8.9318 14.9552 8.6499 14.7827 8.63641 14.6625C8.63566 14.6559 8.63233 14.6619 8.64698 14.6379C8.66163 14.614 8.69845 14.5735 8.74461 14.5381C8.83694 14.4674 8.94237 14.4246 8.94237 14.4246L8.95294 14.4205L8.96351 14.4157C8.96351 14.4157 11.8646 13.0473 14.8166 11.6566C16.2926 10.9613 17.7814 10.2605 18.9266 9.72214C20.0715 9.1839 20.8987 8.79648 20.9688 8.76551C21.0485 8.7304 21.1278 8.71607 21.1908 8.71286ZM17.7469 12.4847L13.8085 17.5796L13.8067 17.5817C13.8005 17.5898 13.7947 17.5982 13.7893 17.607C13.783 17.6164 13.7772 17.6263 13.7718 17.6364C13.7497 17.6777 13.7355 17.7235 13.7302 17.7711C13.7302 17.772 13.7302 17.7729 13.7302 17.7738L13.2171 20.3107C13.2086 20.2833 13.2026 20.2733 13.1935 20.2409C13.0305 19.6652 12.2876 16.9391 12.1848 16.5621L17.7469 12.4847ZM14.2532 18.4145L14.9609 18.9985L13.9211 20.0584L14.2532 18.4145Z" fill="#FEFEFE"/>
<path d="M20.7319 8.11591L-7.47671 -55.9487L-7.51879 -55.9302L-7.56084 -55.9116L20.7319 8.11591ZM18.6759 9.07801L48.4574 72.4268L48.4574 72.4268L18.6759 9.07801ZM8.71227 13.7722L-18.4171 -50.7568L8.71227 83.7722V13.7722ZM8.73342 13.7634L35.8628 78.2924L-15.4151 -51.9394L8.73342 13.7634ZM8.38082 13.9637L-34.1906 -41.6031V-41.6031L8.38082 13.9637ZM8.00458 14.7487L-61.5583 22.559V22.559L8.00458 14.7487ZM8.71538 15.6137L42.4387 -45.7275L35.9635 -49.2873L28.8877 -51.4167L8.71538 15.6137ZM8.71787 15.6151L-25.0054 76.9562L-20.6206 79.3669L-15.9373 81.1293L8.71787 15.6151ZM11.5524 16.6818L79.0877 -1.72945L69.6809 -36.2354L36.2076 -48.8325L11.5524 16.6818ZM12.5853 20.4488L79.9449 1.40449L79.9422 1.39504L79.9395 1.38559L12.5853 20.4488ZM12.8639 21.1155L70.1716 -19.0818L70.1714 -19.0821L12.8639 21.1155ZM13.0138 21.2714L-26.9868 78.7166L-26.9827 78.7195L13.0138 21.2714ZM13.0803 21.3077L43.7533 -41.6143L42.7182 -42.1189L41.667 -42.5891L13.0803 21.3077ZM13.0816 21.3077L43.6259 -41.6768L43.6073 -41.6858L43.5887 -41.6948L13.0816 21.3077ZM13.0896 21.3104L-5.4607 88.8077L42.689 -42.1237L13.0896 21.3104ZM13.0822 21.3083L31.6325 -46.1889L-15.331 85.2825L13.0822 21.3083ZM13.0977 21.3165L38.2712 -44.0003L38.2631 -44.0035L38.2549 -44.0066L13.0977 21.3165ZM13.127 21.3234L38.216 -44.026L33.8698 -45.6946L29.3409 -46.7729L13.127 21.3234ZM13.7202 21.2167L-31.7782 -31.98L-31.8656 -31.9053L-31.9528 -31.8302L13.7202 21.2167ZM13.7314 21.2071L59.2299 74.4039L61.5633 72.4081L63.7129 70.2158L13.7314 21.2071ZM15.4727 19.4313L61.0343 -33.7113L11.3294 -76.3255L-34.5088 -29.5773L15.4727 19.4313ZM18.2985 21.854L-27.2631 74.9967L-20.7514 80.5795L-13.0843 84.4249L18.2985 21.854ZM18.3339 21.8718L-13.0489 84.4427L-12.7137 84.6108L-12.3768 84.7753L18.3339 21.8718ZM19.5236 21.7569L66.1984 73.9245L66.1984 73.9245L19.5236 21.7569ZM19.8687 21.2495L-46.1731 -1.95564L-46.2811 -1.64822L-46.3863 -1.33981L19.8687 21.2495ZM19.8793 21.2194L85.9211 44.4246L87.8415 38.9589L88.8374 33.2519L19.8793 21.2194ZM21.9557 9.31938L-46.6906 -4.38043L-46.8566 -3.54865L-47.0024 -2.71309L21.9557 9.31938ZM21.9663 8.61508L-46.0859 25.0133L-46.0859 25.0134L21.9663 8.61508ZM21.1908 8.71286L17.6308 -61.1966H17.6308L21.1908 8.71286ZM21.3152 8.72722L-17.0758 67.2604L-17.0754 67.2607L21.3152 8.72722ZM21.3506 8.79423L-46.7019 25.1912L-46.7018 25.1916L21.3506 8.79423ZM21.3338 9.16963L88.3266 29.4666L89.314 26.2074L89.9805 22.8678L21.3338 9.16963ZM21.3326 9.17374L-45.6602 -11.1232L-46.8939 -7.05137L-47.6253 -2.86006L21.3326 9.17374ZM19.268 21.0047L84.0277 47.5787L86.9173 40.5369L88.2258 33.0385L19.268 21.0047ZM19.1218 21.214L-27.553 -30.9537L-27.5531 -30.9536L19.1218 21.214ZM18.6144 21.2372L-26.9515 74.3763L-19.5509 80.7221L-10.698 84.8044L18.6144 21.2372ZM15.5243 18.5875L-30.2386 71.5569L-30.1402 71.6419L-30.0415 71.7265L15.5243 18.5875ZM15.4372 18.5123L61.2001 -34.4571L9.5631 -79.0689L-36.3494 -28.5849L15.4372 18.5123ZM15.4354 18.5144L-29.113 72.5092L22.3411 114.961L67.222 65.6115L15.4354 18.5144ZM14.5112 17.7519L-40.8712 -25.0591L-82.3435 28.5916L-30.0371 71.7468L14.5112 17.7519ZM19.7045 11.0337L-35.6243 -31.8466L-35.6512 -31.812L-35.678 -31.7773L19.7045 11.0337ZM19.4539 10.4565L17.4598 -59.5151L17.4555 -59.5149L19.4539 10.4565ZM19.2854 10.5153L60.6703 66.9714L60.6881 66.9583L60.706 66.9452L19.2854 10.5153ZM11.7707 16.024L-12.8929 81.5351L22.5831 94.8911L53.1556 72.48L11.7707 16.024ZM8.9318 14.9552L-27.6034 74.6644L-21.9426 78.1281L-15.7318 80.4663L8.9318 14.9552ZM8.63641 14.6625L78.1993 6.85222L78.1986 6.84613L8.63641 14.6625ZM8.64698 14.6379L-51.0882 -21.8546L-51.093 -21.8469L8.64698 14.6379ZM8.74461 14.5381L51.3161 70.1049L51.3161 70.1049L8.74461 14.5381ZM8.94237 14.4246L-16.382 -50.8339L-16.8796 -50.6408L-17.3742 -50.4402L8.94237 14.4246ZM8.95294 14.4205L34.2773 79.679L36.072 78.9826L37.8257 78.1885L8.95294 14.4205ZM8.96351 14.4157L37.8362 78.1838L38.3333 77.9587L38.8268 77.7259L8.96351 14.4157ZM18.9266 9.72214L48.708 73.0709L48.708 73.0709L18.9266 9.72214ZM20.9688 8.76551L-7.23984 -55.2991L-7.2861 -55.2787L-7.33233 -55.2583L20.9688 8.76551ZM17.7469 12.4847L73.1299 55.295L-23.6396 -43.9703L17.7469 12.4847ZM13.8085 17.5796L65.5952 64.6768L67.4791 62.6053L69.1915 60.3899L13.8085 17.5796ZM13.8067 17.5817L-37.98 -29.5155L-40.1259 -27.1559L-42.0484 -24.6109L13.8067 17.5817ZM13.7893 17.607L72.2288 56.1403L72.6907 55.4398L73.1357 54.7284L13.7893 17.607ZM13.7718 17.6364L75.4721 50.698L75.5565 50.5405L75.6401 50.3826L13.7718 17.6364ZM13.7302 17.7711L-55.83 9.93639L-56.2559 13.7175L-56.2694 17.5224L13.7302 17.7711ZM13.7302 17.7738L82.3412 31.6494L83.7551 24.658L83.7297 17.5251L13.7302 17.7738ZM13.2171 20.3107L-53.6211 41.111L81.8281 34.1863L13.2171 20.3107ZM13.1935 20.2409L80.5561 1.20741L80.5519 1.19233L80.5476 1.17726L13.1935 20.2409ZM12.1848 16.5621L-29.2016 -39.8928L-68.0084 -11.4441L-55.3492 34.9784L12.1848 16.5621ZM14.2532 18.4145L58.8051 -35.5774L-31.2432 -109.882L-54.3608 4.55349L14.2532 18.4145ZM14.9609 18.9985L64.9301 68.0197L118.355 13.5612L59.5128 -34.9934L14.9609 18.9985ZM13.9211 20.0584L-54.6928 6.19733L-101.441 237.608L63.8903 69.0796L13.9211 20.0584ZM17.8011 -61.9177C6.02244 -61.3495 -2.88744 -57.9694 -7.47671 -55.9487L48.9404 72.1805C44.6234 74.0814 36.0154 77.3665 24.5469 77.9197L17.8011 -61.9177ZM-7.56084 -55.9116C-8.68556 -55.4146 -10.7081 -54.4576 -11.1055 -54.2708L48.4574 72.4268C49.0324 72.1564 49.4699 71.9509 49.7718 71.8095C49.8441 71.7757 49.9014 71.7489 49.9456 71.7282C49.9673 71.7181 49.9841 71.7103 49.9964 71.7045C50.0089 71.6987 50.0146 71.6961 50.0145 71.6961C50.0143 71.6962 50.0119 71.6973 50.0076 71.6993C50.0033 71.7013 49.9962 71.7046 49.9867 71.709C49.9697 71.7168 49.9345 71.7331 49.8859 71.7555C49.8415 71.7759 49.7558 71.8152 49.6439 71.866C49.5862 71.8922 49.5076 71.9278 49.4135 71.9701C49.323 72.0108 49.1886 72.0709 49.0245 72.1434L-7.56084 -55.9116ZM-11.1055 -54.2708C-12.2792 -53.719 -13.7913 -53.0068 -15.2668 -52.3118L44.3975 74.3381C45.8741 73.6424 47.3401 72.952 48.4574 72.4268L-11.1055 -54.2708ZM-15.2668 -52.3118C-16.7521 -51.612 -18.2228 -50.9188 -19.321 -50.401C-19.8704 -50.1419 -20.3273 -49.9264 -20.6471 -49.7756C-20.807 -49.7002 -20.9327 -49.641 -21.0185 -49.6005C-21.0614 -49.5802 -21.0944 -49.5647 -21.1167 -49.5542C-21.1279 -49.5489 -21.1364 -49.5449 -21.1421 -49.5422C-21.145 -49.5408 -21.1472 -49.5398 -21.1487 -49.5391C-21.1494 -49.5387 -21.15 -49.5385 -21.1504 -49.5383C-21.1506 -49.5382 -21.1507 -49.5381 -21.1508 -49.5381C-21.1508 -49.538 -21.1509 -49.538 -21.1509 -49.538C-21.1509 -49.538 -6.58937 -54.5348 8.71227 -56.2278V83.7722C24.0139 82.0793 38.5755 77.0825 38.5755 77.0825C38.5755 77.0825 38.5756 77.0825 38.5756 77.0824C38.5757 77.0824 38.5758 77.0824 38.576 77.0823C38.5763 77.0821 38.5768 77.0819 38.5774 77.0816C38.5788 77.081 38.5808 77.08 38.5835 77.0787C38.5889 77.0762 38.597 77.0723 38.6079 77.0672C38.6295 77.057 38.6617 77.0418 38.7039 77.0219C38.7882 76.9822 38.9123 76.9237 39.0705 76.8491C39.3869 76.6998 39.8397 76.4863 40.3846 76.2294C41.4749 75.7153 42.9307 75.029 44.3975 74.3381L-15.2668 -52.3118ZM35.8417 78.3013L35.8628 78.2924L-18.396 -50.7657L-18.4171 -50.7568L35.8417 78.3013ZM8.73342 13.7634C-15.4151 -51.9394 -15.4266 -51.9352 -15.438 -51.931C-15.4418 -51.9295 -15.4533 -51.9253 -15.4609 -51.9225C-15.4762 -51.9169 -15.4915 -51.9112 -15.5068 -51.9056C-15.5375 -51.8943 -15.5683 -51.8829 -15.5991 -51.8714C-15.6609 -51.8485 -15.7231 -51.8254 -15.7857 -51.802C-15.9109 -51.7551 -16.0379 -51.7073 -16.1666 -51.6583C-16.4239 -51.5604 -16.6886 -51.4579 -16.9604 -51.3507C-17.503 -51.1366 -18.0794 -50.9015 -18.6852 -50.6439C-19.8857 -50.1335 -21.2612 -49.5098 -22.7627 -48.7566C-25.5995 -47.3336 -29.6976 -45.0454 -34.1906 -41.6031L50.9523 69.5305C46.6367 72.8368 42.715 75.0248 40.0101 76.3817C38.5745 77.1018 37.2539 77.7009 36.0918 78.195C35.5052 78.4444 34.9439 78.6735 34.4115 78.8834C34.1449 78.9886 33.884 79.0896 33.6294 79.1865C33.502 79.235 33.3761 79.2825 33.2515 79.3291C33.1892 79.3524 33.1273 79.3754 33.0657 79.3982C33.0349 79.4097 33.0042 79.421 32.9736 79.4323C32.9583 79.438 32.943 79.4436 32.9277 79.4492C32.9201 79.4521 32.9087 79.4563 32.9048 79.4577C32.8934 79.4619 32.882 79.4661 8.73342 13.7634ZM-34.1906 -41.6031C-38.3334 -38.4292 -45.5137 -32.2356 -51.6174 -22.244L67.8542 50.739C61.9069 60.4746 54.9175 66.4926 50.9523 69.5305L-34.1906 -41.6031ZM-51.6174 -22.244C-58.35 -11.223 -63.6011 4.36508 -61.5583 22.559L77.5675 6.93838C79.5672 24.7486 74.4304 39.9739 67.8542 50.739L-51.6174 -22.244ZM-61.5583 22.559C-58.9118 46.1306 -45.6793 61.9858 -34.8241 70.5037C-29.6668 74.5506 -24.7912 77.2241 -21.0808 78.9623C-19.1661 79.8592 -17.3894 80.5875 -15.8071 81.1785C-15.0107 81.476 -14.2486 81.7443 -13.5259 81.9864C-13.1641 82.1076 -12.8106 82.2228 -12.4661 82.3321C-12.2937 82.3868 -12.1234 82.4402 -11.9553 82.4921C-11.8712 82.5181 -11.7876 82.5438 -11.7046 82.5691C-11.6631 82.5818 -11.6217 82.5944 -11.5804 82.6069C-11.5598 82.6131 -11.5289 82.6224 -11.5186 82.6255C-11.4878 82.6348 -11.4569 82.6441 8.71538 15.6137C28.8877 -51.4167 28.9185 -51.4074 28.9493 -51.3981C28.9596 -51.395 28.9905 -51.3857 29.0111 -51.3795C29.0523 -51.367 29.0937 -51.3544 29.1351 -51.3418C29.218 -51.3165 29.3014 -51.2909 29.3851 -51.265C29.5527 -51.2132 29.722 -51.1602 29.8932 -51.1059C30.2353 -50.9972 30.5852 -50.8833 30.9424 -50.7636C31.6557 -50.5247 32.4041 -50.2611 33.183 -49.9701C34.7302 -49.3922 36.4568 -48.6842 38.3107 -47.8157C41.8997 -46.1343 46.6117 -43.5507 51.6008 -39.6359C62.1195 -31.3821 74.9966 -15.9594 77.5675 6.93837L-61.5583 22.559ZM-25.0079 76.9549L-25.0054 76.9562L42.4412 -45.7261L42.4387 -45.7275L-25.0079 76.9549ZM-15.9373 81.1293L-13.1028 82.1961L36.2076 -48.8325L33.3731 -49.8992L-15.9373 81.1293ZM-55.983 35.093C-55.9485 35.2197 -55.7261 36.0358 -55.49 36.8992C-55.307 37.5685 -54.9626 38.8278 -54.7689 39.512L79.9395 1.38559C79.9741 1.50753 79.9861 1.55202 79.9547 1.43858C79.9319 1.35638 79.8989 1.2366 79.8554 1.07859C79.7689 0.763989 79.662 0.373503 79.5519 -0.0288029C79.3329 -0.829651 79.1255 -1.59097 79.0877 -1.72945L-55.983 35.093ZM-54.7743 39.4931C-53.689 43.3317 -50.9669 52.0132 -44.4436 61.3132L70.1714 -19.0821C76.508 -10.0485 79.051 -1.75732 79.9449 1.40449L-54.7743 39.4931ZM-44.4438 61.3128C-41.0119 66.2056 -35.444 72.8277 -26.9868 78.7166L53.0144 -36.1738C61.3633 -30.3602 66.8332 -23.8413 70.1716 -19.0818L-44.4438 61.3128ZM-26.9827 78.7195C-21.6933 82.4021 -17.0881 84.4968 -15.5064 85.2045L41.667 -42.5891C43.2039 -41.9015 47.7639 -39.8293 53.0103 -36.1766L-26.9827 78.7195ZM-17.5926 84.2296C-16.2503 84.884 -14.8574 85.5098 -13.4147 86.0997C-11.9716 86.6898 -10.4886 87.24 -8.96704 87.745C-7.44516 88.25 -5.89791 88.7054 -4.3276 89.1086C-2.75713 89.5118 -1.17895 89.8589 0.403816 90.1503C1.98653 90.4417 3.55779 90.6746 5.11381 90.8529C6.66955 91.0311 8.19512 91.153 9.68616 91.2254C11.1768 91.2977 12.6206 91.3201 14.013 91.3015C15.4048 91.283 16.7367 91.2237 18.0035 91.1344C20.5353 90.9559 22.7931 90.6583 24.7234 90.3327C25.6884 90.1699 26.577 89.9992 27.3803 89.8316C28.183 89.6641 28.9098 89.4977 29.5491 89.343C30.1876 89.1884 30.7527 89.0421 31.2287 88.9143C31.7036 88.7868 32.1095 88.6725 32.4238 88.5821C32.7356 88.4925 32.9872 88.4178 33.1403 88.372C33.2185 88.3486 33.2819 88.3295 33.3207 88.3178C33.3405 88.3118 33.3566 88.3069 33.3666 88.3039C33.3716 88.3023 33.3758 88.3011 33.3784 88.3003C33.3809 88.2995 33.3829 88.2989 33.3829 88.2989C33.3892 88.297 33.3603 88.3058 33.3272 88.3158C33.2907 88.3268 33.2294 88.3453 33.1535 88.368C33.0049 88.4125 32.7575 88.486 32.4504 88.5745C32.1406 88.6637 31.7393 88.7769 31.2692 88.9034C30.7979 89.0302 30.2376 89.1757 29.604 89.3296C28.9697 89.4837 28.2479 89.6496 27.4505 89.8169C26.6523 89.9843 25.7689 90.155 24.8093 90.3181C22.8898 90.6443 20.6428 90.9439 18.1218 91.1259C16.8603 91.2169 15.5335 91.2784 14.1467 91.2995C12.7593 91.3206 11.3201 91.3012 9.83386 91.2322C8.34716 91.1632 6.82548 91.045 5.27317 90.8708C3.72059 90.6965 2.15219 90.4678 0.571787 90.1807C-1.00867 89.8937 -2.58517 89.5511 -4.15457 89.1524C-5.72382 88.7538 -7.27064 88.3028 -8.79267 87.8021C-10.3144 87.3016 -11.7982 86.7556 -13.2425 86.1694C-14.6865 85.5833 -16.081 84.9612 -17.4256 84.3102L43.5887 -41.6948C42.2441 -42.3459 40.8496 -42.968 39.4056 -43.5541C37.9612 -44.1403 36.4774 -44.6863 34.9556 -45.1869C33.4336 -45.6876 31.8867 -46.1385 30.3174 -46.5372C28.748 -46.9359 27.1715 -47.2785 25.591 -47.5655C24.0106 -47.8526 22.4421 -48.0813 20.8895 -48.2556C19.3372 -48.4298 17.8155 -48.548 16.3288 -48.617C14.8425 -48.6861 13.4032 -48.7054 12.0158 -48.6843C10.629 -48.6632 9.30217 -48.6018 8.04069 -48.5107C5.51957 -48.3287 3.27255 -48.0291 1.35304 -47.7029C0.39335 -47.5398 -0.490084 -47.3691 -1.28822 -47.2017C-2.08573 -47.0344 -2.80748 -46.8685 -3.44185 -46.7144C-4.07544 -46.5605 -4.63574 -46.415 -5.10709 -46.2882C-5.57722 -46.1617 -5.97858 -46.0484 -6.28838 -45.9592C-6.59549 -45.8708 -6.84292 -45.7972 -6.99154 -45.7527C-7.0675 -45.73 -7.12876 -45.7115 -7.16533 -45.7005C-7.19836 -45.6905 -7.22734 -45.6817 -7.22106 -45.6836C-7.22104 -45.6836 -7.21904 -45.6842 -7.21656 -45.685C-7.21393 -45.6858 -7.20978 -45.687 -7.20469 -45.6886C-7.19472 -45.6916 -7.17864 -45.6964 -7.15883 -45.7024C-7.12003 -45.7141 -7.05672 -45.7332 -6.97852 -45.7566C-6.82541 -45.8024 -6.5738 -45.8771 -6.26209 -45.9668C-5.94776 -46.0571 -5.54191 -46.1715 -5.06707 -46.2989C-4.59103 -46.4267 -4.02599 -46.573 -3.38748 -46.7276C-2.7482 -46.8823 -2.02147 -47.0487 -1.21883 -47.2162C-0.415554 -47.3838 0.473086 -47.5545 1.43809 -47.7173C3.36833 -48.0429 5.626 -48.3405 8.15777 -48.519C9.42453 -48.6083 10.7565 -48.6675 12.1482 -48.6861C13.5405 -48.7046 14.9844 -48.6823 16.475 -48.6099C17.966 -48.5375 19.4915 -48.4157 21.0472 -48.2375C22.6032 -48.0592 24.1745 -47.8263 25.7572 -47.5349C27.3399 -47.2434 28.9181 -46.8964 30.4885 -46.4932C32.0588 -46.09 33.606 -45.6346 35.1278 -45.1296C36.6494 -44.6246 38.1324 -44.0745 39.5755 -43.4844C41.0181 -42.8944 42.4109 -42.2686 43.7533 -41.6143L-17.5926 84.2296ZM-17.4628 84.2921C-13.9192 86.0106 -10.8216 87.1422 -8.58416 87.8705C-7.49099 88.2264 -6.58724 88.4906 -5.99662 88.6579C-5.69866 88.7423 -5.4537 88.8096 -5.29255 88.8534C-5.13935 88.8951 -5.0176 88.9276 -5.00468 88.9311C-4.95145 88.9453 -5.05142 88.9186 -5.139 88.895C-5.24776 88.8657 -5.44552 88.8121 -5.69268 88.7433C-6.18104 88.6073 -6.99808 88.3743 -8.0021 88.0571C-10.0567 87.4079 -13.0441 86.3616 -16.5097 84.7445L42.689 -42.1237C39.222 -43.7414 36.2332 -44.7883 34.1773 -45.4379C33.1726 -45.7553 32.3549 -45.9885 31.8659 -46.1246C31.6184 -46.1936 31.4203 -46.2472 31.3112 -46.2767C31.2233 -46.3004 31.123 -46.3272 31.1759 -46.313C31.1885 -46.3096 31.3099 -46.2772 31.4628 -46.2356C31.6236 -46.1919 31.8682 -46.1247 32.1658 -46.0404C32.7558 -45.8732 33.6589 -45.6092 34.7514 -45.2536C36.9874 -44.5257 40.0837 -43.3946 43.6259 -41.6768L-17.4628 84.2921ZM31.64 -46.1869L31.6325 -46.1889L-5.46817 88.8056L-5.4607 88.8077L31.64 -46.1869ZM-15.331 85.2825C-17.9693 84.1107 -19.9784 83.0196 -20.97 82.4674C-21.4979 82.1734 -21.9097 81.9349 -22.0996 81.8245C-22.1981 81.7672 -22.2749 81.7222 -22.2926 81.7118C-22.3422 81.6828 -22.275 81.7221 -22.2444 81.7401C-22.1572 81.791 -21.8332 81.9805 -21.4155 82.2172C-20.9867 82.4602 -20.3416 82.8198 -19.5476 83.2384C-18.0329 84.0368 -15.4296 85.3418 -12.0594 86.6397L38.2549 -44.0066C41.6224 -42.7097 44.2232 -41.406 45.7353 -40.6089C46.528 -40.191 47.1717 -39.8321 47.5992 -39.5899C48.0157 -39.3539 48.3385 -39.1651 48.4243 -39.115C48.4543 -39.0974 48.5209 -39.0584 48.4706 -39.0879C48.4522 -39.0986 48.3747 -39.144 48.2756 -39.2016C48.0845 -39.3128 47.6714 -39.552 47.1421 -39.8467C46.1479 -40.4004 44.1363 -41.4929 41.4953 -42.6658L-15.331 85.2825ZM-12.0758 86.6334C-9.6099 87.5838 -7.17709 88.3612 -4.80215 88.9897C-2.53605 89.5893 -0.724814 89.9443 0.0950184 90.0995C0.460128 90.1686 0.778048 90.2253 0.717047 90.2143C0.717039 90.2143 0.716933 90.2143 0.716853 90.2142C0.716774 90.2142 0.716523 90.2142 0.716372 90.2142C0.715969 90.2141 0.715333 90.214 0.714548 90.2138C0.713008 90.2136 0.710538 90.2131 0.70749 90.2126C0.701499 90.2115 0.691861 90.2097 0.679977 90.2076C0.656509 90.2034 0.619247 90.1966 0.573434 90.1883C0.481998 90.1716 0.342614 90.1461 0.1727 90.1141C-0.567845 89.9747 -1.70674 89.7483 -3.08701 89.4197L29.3409 -46.7729C27.9542 -47.1031 26.8097 -47.3306 26.064 -47.4709C25.8928 -47.5032 25.7522 -47.529 25.6595 -47.5458C25.6131 -47.5543 25.5752 -47.5611 25.5512 -47.5655C25.539 -47.5677 25.5291 -47.5695 25.5228 -47.5706C25.5196 -47.5712 25.517 -47.5717 25.5153 -47.572C25.5137 -47.5722 25.5124 -47.5725 25.5123 -47.5725C25.449 -47.5839 25.7647 -47.5276 26.1276 -47.4589C26.943 -47.3046 28.7499 -46.9505 31.0116 -46.352C33.3822 -45.7247 35.8104 -44.9487 38.2712 -44.0003L-12.0758 86.6334ZM-11.9621 86.6728C9.29187 94.8326 28.2198 90.7518 39.0994 86.4857C44.5304 84.3561 48.8309 81.8934 51.9172 79.8802C53.5094 78.8416 54.9173 77.8316 56.1372 76.902C56.751 76.4342 57.3281 75.9785 57.8681 75.5396C58.1385 75.3198 58.4006 75.1034 58.6545 74.8909C58.7815 74.7845 58.9065 74.6791 59.0296 74.5746C59.0911 74.5223 59.1522 74.4703 59.2128 74.4185C59.2431 74.3925 59.2733 74.3667 59.3034 74.3409C59.3184 74.328 59.3409 74.3087 59.3484 74.3022C59.3708 74.283 59.3932 74.2637 13.7202 21.2167C-31.9528 -31.8302 -31.9303 -31.8495 -31.9079 -31.8688C-31.9004 -31.8752 -31.8779 -31.8946 -31.8629 -31.9074C-31.8329 -31.9332 -31.8027 -31.9591 -31.7725 -31.9849C-31.7119 -32.0367 -31.6509 -32.0887 -31.5895 -32.1408C-31.4667 -32.2451 -31.3421 -32.3502 -31.2156 -32.4561C-30.9627 -32.6678 -30.7022 -32.8829 -30.4338 -33.101C-29.8979 -33.5366 -29.327 -33.9874 -28.7211 -34.4491C-27.5172 -35.3666 -26.1328 -36.3595 -24.5709 -37.3784C-21.545 -39.3521 -17.332 -41.7648 -12.0088 -43.8521C-1.34459 -48.0338 17.2867 -52.0612 38.216 -44.026L-11.9621 86.6728ZM59.2187 74.4134L59.2299 74.4039L-31.767 -31.9896L-31.7782 -31.98L59.2187 74.4134ZM63.7129 70.2158L65.4542 68.44L-34.5088 -29.5773L-36.2501 -27.8015L63.7129 70.2158ZM-30.0889 72.574L-27.2631 74.9967L63.8601 -31.2886L61.0343 -33.7113L-30.0889 72.574ZM-13.0843 84.4249L-13.0489 84.4427L49.7167 -40.6991L49.6812 -40.7169L-13.0843 84.4249ZM-12.3768 84.7753C15.0433 98.1623 45.877 92.1063 66.1984 73.9245L-27.1513 -30.4107C-7.3253 -48.1492 22.6137 -53.9358 49.0446 -41.0317L-12.3768 84.7753ZM66.1984 73.9245C73.7941 67.1285 78.3658 60.1004 80.9164 55.5294C82.2828 53.0807 83.3437 50.8404 84.1596 48.9422C84.5731 47.9803 84.9387 47.0712 85.2614 46.2258C85.4232 45.8019 85.5755 45.3908 85.7187 44.9936C85.7903 44.7949 85.8599 44.5992 85.9273 44.4068C85.961 44.3106 85.9942 44.2152 86.027 44.1205C86.0433 44.0732 86.0596 44.0261 86.0757 43.9791C86.0837 43.9557 86.0918 43.9322 86.0998 43.9089C86.1038 43.8972 86.1097 43.8797 86.1117 43.8738C86.1177 43.8564 86.1237 43.8389 19.8687 21.2495C-46.3863 -1.33981 -46.3803 -1.35729 -46.3744 -1.37476C-46.3724 -1.38059 -46.3664 -1.3981 -46.3624 -1.40977C-46.3544 -1.43313 -46.3464 -1.45653 -46.3383 -1.47996C-46.3222 -1.52684 -46.306 -1.57387 -46.2897 -1.62106C-46.2571 -1.71544 -46.224 -1.81046 -46.1905 -1.90612C-46.1234 -2.09741 -46.0545 -2.2914 -45.9836 -2.488C-45.8419 -2.88095 -45.692 -3.2857 -45.5334 -3.7013C-45.217 -4.5302 -44.8609 -5.41525 -44.4604 -6.34691C-43.6705 -8.18457 -42.6494 -10.3397 -41.3383 -12.6892C-38.8984 -17.0619 -34.4993 -23.8364 -27.1513 -30.4107L66.1984 73.9245ZM85.9105 44.4547L85.9211 44.4246L-46.1625 -1.98572L-46.1731 -1.95564L85.9105 44.4547ZM88.8374 33.2519L90.9138 21.3519L-47.0024 -2.71309L-49.0788 9.18698L88.8374 33.2519ZM90.602 23.0192C91.8456 16.7878 93.245 5.60701 90.0184 -7.78328L-46.0859 25.0134C-49.2123 12.039 -47.8279 1.31848 -46.6906 -4.38043L90.602 23.0192ZM90.0184 -7.78318C86.4165 -22.7312 77.1391 -39.1873 60.0323 -50.4073L-16.749 66.6596C-33.5503 55.64 -42.5841 39.5455 -46.0859 25.0133L90.0184 -7.78318ZM60.0323 -50.4073C45.91 -59.6697 30.6962 -62.5397 17.8011 -61.9177L24.5469 77.9197C11.962 78.5268 -2.93225 75.7216 -16.749 66.6596L60.0323 -50.4073ZM24.7508 78.6223C21.2056 78.8028 16.9683 78.7459 12.2315 78.1291C9.89669 77.825 6.57876 77.2743 2.68669 76.2009C-0.102121 75.4317 -8.176 73.0976 -17.0758 67.2604L59.7062 -49.8059C50.799 -55.648 42.7138 -57.9867 39.9101 -58.7599C36.0032 -59.8375 32.6669 -60.3918 30.3107 -60.6987C25.5311 -61.3211 21.239 -61.3803 17.6308 -61.1966L24.7508 78.6223ZM-17.0754 67.2607C-16.1027 67.8986 -14.7695 68.7177 -15.5972 68.2039C-15.8816 68.0274 -17.9097 66.7828 -20.3307 64.9901C-26.5799 60.3629 -32.6582 54.2421 -37.6348 46.4622C-41.795 39.9585 -43.9324 34.2143 -44.8797 31.4494C-45.8825 28.5225 -46.4662 26.1693 -46.7019 25.1912L89.4031 -7.60272C89.1603 -8.6102 88.5706 -10.9852 87.5621 -13.9286C86.6091 -16.7101 84.4665 -22.4655 80.301 -28.9775C75.3192 -36.7656 69.2356 -42.8915 62.9806 -47.5231C60.5567 -49.3179 58.5255 -50.5645 58.2379 -50.743C57.407 -51.2588 58.7367 -50.4418 59.7057 -49.8063L-17.0754 67.2607ZM-46.7018 25.1916C-48.4453 17.9556 -48.7023 11.7972 -48.6263 7.64906C-48.5427 3.09036 -48.0165 -1.00206 -47.3128 -4.52855L89.9805 22.8678C91.2326 16.5931 92.5736 5.5555 89.403 -7.6031L-46.7018 25.1916ZM-45.659 -11.1273L-45.6602 -11.1232L88.3254 29.4707L88.3266 29.4666L-45.659 -11.1273ZM-47.6253 -2.86006L-49.6899 8.97094L88.2258 33.0385L90.2905 21.2075L-47.6253 -2.86006ZM-45.4918 -5.56923C-45.5356 -5.46251 -44.9288 -6.97076 -44.0937 -8.74753C-43.3011 -10.4337 -42.2738 -12.4433 -40.9645 -14.6492C-38.493 -18.8128 -34.2714 -24.9426 -27.553 -30.9537L65.7966 73.3816C72.6133 67.2827 76.9055 61.0542 79.4243 56.8109C80.7573 54.5652 81.8024 52.5205 82.6074 50.8077C83.4551 49.0043 84.0691 47.4779 84.0277 47.5787L-45.4918 -5.56923ZM-27.5531 -30.9536C-24.8593 -33.3637 -12.1824 -44.7908 8.51404 -47.9086C27.5296 -50.7732 42.0359 -45.0463 47.9267 -42.33L-10.698 84.8044C-4.5114 87.6572 10.1986 93.4173 29.3688 90.5294C50.22 87.3883 63.0027 75.8813 65.7967 73.3815L-27.5531 -30.9536ZM64.1802 -31.9018L61.0901 -34.5515L-30.0415 71.7265L-26.9515 74.3763L64.1802 -31.9018ZM61.2872 -34.3819L61.2001 -34.4571L-30.3257 71.4817L-30.2386 71.5569L61.2872 -34.3819ZM-36.3494 -28.5849L-36.3513 -28.5828L67.222 65.6115L67.2239 65.6095L-36.3494 -28.5849ZM59.9837 -35.4805L59.0596 -36.243L-30.0371 71.7468L-29.113 72.5092L59.9837 -35.4805ZM69.8937 60.5629L75.087 53.8447L-35.678 -31.7773L-40.8712 -25.0591L69.8937 60.5629ZM75.0334 53.9139C83.1468 43.4451 87.8366 31.3129 89.2872 19.1255L-49.7315 2.57847C-48.2968 -9.47476 -43.658 -21.4807 -35.6243 -31.8466L75.0334 53.9139ZM89.2872 19.1255C90.7373 6.94276 88.9976 -5.61848 83.9569 -17.2264L-44.4579 38.5378C-49.4456 27.0519 -51.1656 14.6271 -49.7315 2.57847L89.2872 19.1255ZM83.9569 -17.2264C78.9044 -28.8615 70.4546 -39.654 58.7399 -47.5463L-19.4829 68.5623C-31.0927 60.7407 -39.4584 50.0508 -44.4579 38.5378L83.9569 -17.2264ZM58.7399 -47.5463C46.9297 -55.5029 32.5639 -59.9455 17.4598 -59.5151L21.448 80.4281C6.46696 80.8551 -7.77758 76.4482 -19.4829 68.5623L58.7399 -47.5463ZM17.4555 -59.5149C2.71359 -59.0939 -11.0102 -54.0805 -22.1352 -45.9146L60.706 66.9452C49.681 75.0378 36.074 80.0104 21.4523 80.428L17.4555 -59.5149ZM-22.0996 -45.9407L-29.6143 -40.4321L53.1556 72.48L60.6703 66.9714L-22.0996 -45.9407ZM36.4342 -49.4871L33.5954 -50.5559L-15.7318 80.4663L-12.8929 81.5351L36.4342 -49.4871ZM8.9318 14.9552C45.467 -44.7539 45.4754 -44.7488 45.4838 -44.7436C45.4867 -44.7419 45.4951 -44.7367 45.5008 -44.7332C45.5121 -44.7263 45.5234 -44.7194 45.5347 -44.7124C45.5575 -44.6985 45.5803 -44.6844 45.6033 -44.6703C45.6493 -44.642 45.6958 -44.6133 45.743 -44.5842C45.8371 -44.526 45.9338 -44.4659 46.0328 -44.404C46.2303 -44.2805 46.4397 -44.1482 46.6596 -44.0075C47.0942 -43.7293 47.5967 -43.4007 48.1514 -43.0249C49.1599 -42.3416 50.7908 -41.1989 52.7088 -39.6535C54.2973 -38.3736 57.9366 -35.3493 61.8527 -30.7772C63.8643 -28.4286 66.9225 -24.5501 69.8605 -19.2556C72.6607 -14.2095 76.8441 -5.21821 78.1993 6.85222L-60.9265 22.4729C-58.4733 44.3223 -46.538 57.888 -44.4762 60.2952C-40.5035 64.9334 -36.7911 68.0234 -35.1305 69.3614C-33.1403 70.965 -31.4381 72.1582 -30.3763 72.8777C-29.795 73.2715 -29.2703 73.6145 -28.8203 73.9026C-28.5926 74.0483 -28.3772 74.1844 -28.1755 74.3105C-28.0744 74.3737 -27.9762 74.4347 -27.881 74.4936C-27.8333 74.5231 -27.7864 74.552 -27.7401 74.5805C-27.717 74.5947 -27.694 74.6088 -27.6713 74.6228C-27.6599 74.6298 -27.6485 74.6367 -27.6372 74.6436C-27.6315 74.6471 -27.6231 74.6523 -27.6203 74.654C-27.6118 74.6592 -27.6034 74.6644 8.9318 14.9552ZM78.1986 6.84613C77.4937 0.572837 74.7129 -9.57735 76.5055 -2.47789C77.5244 1.55704 79.1364 9.35796 78.4842 19.2593C77.8701 28.5808 75.5158 35.8202 73.8595 40.0709C72.3125 44.0411 70.7371 46.9808 70.1709 48.0248C69.4934 49.2741 68.9252 50.2273 68.7629 50.4995C68.511 50.9221 68.1171 51.5645 68.3869 51.1227L-51.093 -21.8469C-50.8305 -22.2767 -51.2294 -21.626 -51.4849 -21.1976C-51.6489 -20.9224 -52.2184 -19.967 -52.8969 -18.7158C-53.4641 -17.67 -55.0403 -14.7288 -56.5877 -10.7574C-58.2444 -6.50557 -60.599 0.734765 -61.2131 10.057C-61.8653 19.9591 -60.2532 27.7607 -59.2342 31.7964C-57.4412 38.8974 -60.2213 28.7489 -60.9258 22.479L78.1986 6.84613ZM68.3822 51.1305C66.3363 54.4793 64.394 57.0201 63.126 58.5906C61.7406 60.3065 60.4144 61.7824 59.2267 63.022C56.9001 65.4501 54.2711 67.841 51.3161 70.1049L-33.8269 -41.0287C-38.1618 -37.7076 -45.1565 -31.5644 -51.0882 -21.8546L68.3822 51.1305ZM51.3161 70.1049C46.932 73.4637 43.0669 75.5842 40.9509 76.6749C39.7383 77.3 38.6499 77.8154 37.7359 78.2281C37.2715 78.4379 36.8325 78.63 36.4229 78.8049C36.2174 78.8926 36.0177 78.9767 35.8241 79.0572C35.7272 79.0975 35.6316 79.137 35.5375 79.1756C35.4904 79.195 35.4437 79.2141 35.3972 79.2331C35.374 79.2426 35.3509 79.252 35.3278 79.2614C35.3163 79.2661 35.3048 79.2707 35.2933 79.2754C35.2876 79.2777 35.279 79.2812 35.2761 79.2824C35.2675 79.2859 35.2589 79.2894 8.94237 14.4246C-17.3742 -50.4402 -17.3828 -50.4367 -17.3914 -50.4332C-17.3942 -50.432 -17.4029 -50.4285 -17.4086 -50.4262C-17.4201 -50.4215 -17.4316 -50.4169 -17.4431 -50.4122C-17.4662 -50.4028 -17.4894 -50.3933 -17.5127 -50.3838C-17.5592 -50.3648 -17.6061 -50.3456 -17.6534 -50.3262C-17.7479 -50.2874 -17.8441 -50.2477 -17.9417 -50.207C-18.137 -50.1258 -18.339 -50.0407 -18.5475 -49.9517C-18.9633 -49.7742 -19.4112 -49.5783 -19.887 -49.3634C-20.8237 -48.9404 -21.9441 -48.4099 -23.1947 -47.7653C-25.3864 -46.6355 -29.3505 -44.4582 -33.8269 -41.0287L51.3161 70.1049ZM34.2667 79.6831L34.2773 79.679L-16.3714 -50.8381L-16.382 -50.8339L34.2667 79.6831ZM37.8257 78.1885L37.8362 78.1838L-19.9092 -49.3524L-19.9198 -49.3476L37.8257 78.1885ZM8.96351 14.4157C38.8268 77.7259 38.8268 77.7259 38.8268 77.7259C38.8268 77.7259 38.8269 77.7259 38.8269 77.7259C38.827 77.7258 38.8271 77.7258 38.8272 77.7257C38.8275 77.7256 38.828 77.7253 38.8287 77.725C38.83 77.7244 38.832 77.7235 38.8347 77.7222C38.8401 77.7196 38.8483 77.7158 38.8591 77.7107C38.8807 77.7005 38.913 77.6853 38.9551 77.6654C39.0395 77.6256 39.1635 77.5671 39.3217 77.4925C39.6381 77.3433 40.091 77.1297 40.6359 76.8728C41.7262 76.3587 43.182 75.6724 44.6487 74.9815L-15.0155 -51.6683C-16.5008 -50.9686 -17.9715 -50.2753 -19.0697 -49.7575C-19.6192 -49.4985 -20.0761 -49.283 -20.3958 -49.1322C-20.5558 -49.0568 -20.6814 -48.9975 -20.7673 -48.957C-20.8102 -48.9368 -20.8431 -48.9212 -20.8655 -48.9107C-20.8766 -48.9054 -20.8851 -48.9014 -20.8909 -48.8987C-20.8938 -48.8974 -20.8959 -48.8963 -20.8974 -48.8956C-20.8982 -48.8953 -20.8987 -48.895 -20.8991 -48.8948C-20.8993 -48.8947 -20.8995 -48.8947 -20.8996 -48.8946C-20.8997 -48.8946 -20.8997 -48.8946 -20.8997 -48.8945C-20.8998 -48.8945 -20.8998 -48.8945 8.96351 14.4157ZM44.6487 74.9815C46.1129 74.2917 47.5841 73.5993 48.708 73.0709L-10.8549 -53.6266C-12.0214 -53.0782 -13.5278 -52.3692 -15.0155 -51.6683L44.6487 74.9815ZM48.708 73.0709C49.2619 72.8105 49.7232 72.594 50.0424 72.4445C50.206 72.3678 50.3078 72.3203 50.3567 72.2975C50.3856 72.284 50.3629 72.2946 50.311 72.3187C50.2877 72.3295 50.2159 72.3627 50.1181 72.4075C50.0689 72.43 49.9828 72.4695 49.8741 72.5188C49.8184 72.5441 49.7422 72.5785 49.6515 72.6193C49.5652 72.658 49.4325 72.7174 49.2699 72.7893L-7.33233 -55.2583C-8.38711 -54.792 -10.4595 -53.8125 -10.8549 -53.6266L48.708 73.0709ZM49.1774 72.8301C40.2902 76.7433 31.8075 78.2629 24.7508 78.6223L17.6308 -61.1966C10.4482 -60.8308 1.80689 -59.2825 -7.23984 -55.2991L49.1774 72.8301ZM-37.6361 -30.3257L-41.5745 -25.2307L69.1915 60.3899L73.1299 55.295L-37.6361 -30.3257ZM-37.9781 -29.5176L-37.98 -29.5155L65.5933 64.6788L65.5952 64.6768L-37.9781 -29.5176ZM-42.0484 -24.6109C-43.3017 -22.9517 -44.4713 -21.2504 -45.5572 -19.5144L73.1357 54.7284C72.0608 56.4469 70.9028 58.1313 69.6617 59.7743L-42.0484 -24.6109ZM-44.6503 -20.9264C-45.9023 -19.0277 -47.0507 -17.0856 -48.0964 -15.1099L75.6401 50.3826C74.6051 52.3381 73.4683 54.2605 72.2288 56.1403L-44.6503 -20.9264ZM-47.9285 -15.4253C-52.2403 -7.37849 -54.852 1.25281 -55.83 9.93639L83.2904 25.6058C82.323 34.1942 79.7397 42.7338 75.4721 50.698L-47.9285 -15.4253ZM-56.2694 17.5224C-56.27 17.6891 -56.27 17.8558 -56.2694 18.0225L83.7297 17.5251C83.7303 17.69 83.7303 17.8549 83.7297 18.0197L-56.2694 17.5224ZM-54.8808 3.89825L-55.3939 6.43512L81.8281 34.1863L82.3412 31.6494L-54.8808 3.89825ZM80.0554 -0.489581C79.3668 -2.70205 78.5929 -4.72174 78.8326 -4.07577C78.946 -3.77011 79.241 -2.97107 79.5864 -1.93818C79.9398 -0.881147 80.2625 0.168225 80.5561 1.20741L-54.1691 39.2745C-53.8709 40.3298 -53.5441 41.3926 -53.1867 42.4614C-52.8373 43.5061 -52.5386 44.3154 -52.4215 44.6311C-52.1744 45.297 -52.9411 43.296 -53.6211 41.111L80.0554 -0.489581ZM80.5476 1.17726C80.5834 1.3036 80.5972 1.35451 80.5679 1.24873C80.5473 1.17418 80.5167 1.06327 80.4758 0.914546C80.3944 0.618525 80.2929 0.248305 80.1872 -0.138432C79.9765 -0.908814 79.7728 -1.65612 79.7188 -1.85413L-55.3492 34.9784C-55.3299 35.0493 -54.4442 38.3028 -54.1606 39.3046L80.5476 1.17726ZM53.5713 73.0171L59.1333 68.9396L-23.6396 -43.9703L-29.2016 -39.8928L53.5713 73.0171ZM-30.2988 72.4064L-29.5911 72.9904L59.5128 -34.9934L58.8051 -35.5774L-30.2988 72.4064ZM-35.0083 -30.0227L-36.0481 -28.9629L63.8903 69.0796L64.9301 68.0197L-35.0083 -30.0227ZM82.535 33.9194L82.8671 32.2756L-54.3608 4.55349L-54.6928 6.19733L82.535 33.9194Z" fill="#FEFEFE" mask="url(#path-2-inside-1_864_581)"/>
</svg>
