<svg width="30" height="30" viewBox="0 0 30 30" fill="none" xmlns="http://www.w3.org/2000/svg">
<circle cx="15" cy="15" r="15" fill="#61CE70"/>
<path d="M20.3086 9.68066C19.6178 8.98661 18.7951 8.43637 17.8886 8.06199C16.982 7.68761 16.0097 7.49658 15.0283 7.50005C10.9157 7.50005 7.56404 10.8357 7.56027 14.9306C7.56027 16.2422 7.90495 17.5181 8.55569 18.6478L7.5 22.5L11.4591 21.4669C12.5543 22.0602 13.7813 22.3712 15.0283 22.3716H15.032C19.1455 22.3716 22.4962 19.0359 22.5 14.9372C22.5009 13.9604 22.3077 12.993 21.9314 12.0909C21.5552 11.1887 21.0042 10.3696 20.3086 9.68066ZM15.0283 21.1134C13.9161 21.1138 12.8243 20.8159 11.8678 20.2509L11.6418 20.1159L9.29307 20.7291L9.92027 18.4481L9.77335 18.2128C9.15163 17.2288 8.82281 16.0894 8.82502 14.9269C8.82502 11.5275 11.6097 8.75442 15.032 8.75442C15.8473 8.75296 16.6548 8.91217 17.408 9.22288C18.1612 9.53358 18.8452 9.98963 19.4205 10.5647C19.9978 11.1376 20.4555 11.8186 20.7671 12.5684C21.0788 13.3182 21.2382 14.122 21.2362 14.9335C21.2324 18.345 18.4477 21.1134 15.0283 21.1134ZM18.4326 16.4878C18.2471 16.395 17.3308 15.946 17.1585 15.8822C16.9871 15.8213 16.8618 15.7894 16.7394 15.975C16.6141 16.1597 16.2563 16.5806 16.1489 16.7016C16.0416 16.8263 15.9304 16.8403 15.744 16.7485C15.5584 16.6547 14.9567 16.4597 14.2447 15.825C13.6891 15.3328 13.3171 14.7235 13.206 14.5388C13.0986 14.3531 13.1956 14.2538 13.2889 14.161C13.3708 14.0785 13.4744 13.9435 13.5676 13.8366C13.6618 13.7297 13.6929 13.651 13.7541 13.5272C13.8153 13.4016 13.7861 13.2947 13.74 13.2019C13.6929 13.1091 13.3209 12.1932 13.1636 11.8238C13.0129 11.4591 12.8594 11.5097 12.7445 11.505C12.6372 11.4985 12.5119 11.4985 12.3867 11.4985C12.2921 11.5008 12.199 11.5226 12.1133 11.5624C12.0276 11.6023 11.951 11.6593 11.8885 11.73C11.7171 11.9157 11.2378 12.3647 11.2378 13.2807C11.2378 14.1966 11.9064 15.0769 12.0006 15.2016C12.0929 15.3263 13.3133 17.2003 15.1865 18.0066C15.6291 18.1988 15.9775 18.3122 16.2497 18.3984C16.697 18.5409 17.101 18.5194 17.4231 18.4734C17.7809 18.4191 18.5259 18.0235 18.6831 17.5894C18.8376 17.1544 18.8376 16.7831 18.7905 16.7053C18.7443 16.6266 18.6191 16.5806 18.4326 16.4878Z" fill="#FEFEFE"/>
</svg>
