<svg width="47" height="58" viewBox="0 0 47 58" fill="none" xmlns="http://www.w3.org/2000/svg">
<g clip-path="url(#clip0_854_671)">
<path fill-rule="evenodd" clip-rule="evenodd" d="M7.40771 25.3842C7.63125 25.4648 13.6539 31.5141 14.5975 32.4283C14.7133 32.5404 14.7862 32.5538 14.7172 32.6632C14.8568 32.7922 15.0876 32.7449 15.3766 32.7434L38.2943 32.7433C38.3139 32.5079 38.3071 32.645 38.3475 32.5766L38.4224 32.4866C39.1076 31.7194 41.1824 29.7178 41.9353 28.9649C42.5624 28.3377 43.1493 27.7509 43.7764 27.1238L45.1779 25.7223C45.3358 25.5644 45.5426 25.4432 45.6038 25.214C39.4118 25.214 33.2198 25.214 27.0278 25.214C23.9431 25.214 20.816 25.1635 17.7366 25.2172C17.1018 25.2283 17.3002 25.1392 17.3002 23.3454C17.3002 20.9558 17.2593 7.21146 17.3256 7.10305C17.4243 6.94155 19.2605 7.02276 19.5535 7.02276H38.1294C39.0368 7.02276 39.3531 7.16564 39.6837 6.8184C40.6652 5.7876 41.9913 4.58246 42.8978 3.60228C43.0152 3.47524 43.0266 3.4216 43.1426 3.29759L43.6751 2.78588C43.6828 2.77755 43.6942 2.76596 43.7019 2.75764C43.7095 2.74931 43.7209 2.73766 43.7285 2.72933C43.8363 2.61217 43.9063 2.53656 44.0236 2.41989L46.6451 -0.192216C46.7978 -0.357481 46.7846 -0.385354 46.4929 -0.40077C45.0476 -0.477236 43.3416 -0.396638 41.8666 -0.396638H16.311C15.9257 -0.396638 15.5403 -0.393678 15.1551 -0.398365C14.5878 -0.40521 14.6806 -0.333431 14.3737 -0.0256563L7.47998 6.8752C7.40154 6.94365 7.4502 6.88445 7.39112 6.95123C7.25552 7.10447 7.29233 7.13722 7.29498 7.40466C7.34962 12.9565 7.29788 18.7018 7.29782 24.2797C7.29782 24.8404 7.22265 25.0903 7.40771 25.3842Z" fill="#FEFEFE"/>
<path fill-rule="evenodd" clip-rule="evenodd" d="M15.1135 32.2852C15.1825 32.1759 15.1096 32.1624 14.9939 32.0503C14.0503 31.1361 8.02761 25.0868 7.80407 25.0062L7.4194 25C7.37765 25.1571 7.34004 25.1672 7.23163 25.3078C5.17199 27.9778 3.02459 31.0542 0.950335 33.8103L0 35.0583L4.79724 41.4726C4.90331 41.6147 4.97613 41.7026 5.07825 41.851C5.3214 42.2043 7.19525 44.7786 7.37691 44.8284L32.5353 44.8408C32.9501 45.4603 34.687 47.5127 34.8436 47.8086C34.5274 48.2807 32.7701 50.1617 32.5903 50.5016C25.0976 50.5016 17.605 50.5016 10.1124 50.5016C9.35103 50.5016 8.30961 50.4405 7.58325 50.5005C7.24976 50.5281 7.0795 50.8139 6.88352 51.01L0.590822 57.3027C0.410819 57.4827 0.0654276 57.7309 0 57.9759C0.277558 58.1091 17.3386 58.0309 19.1805 58.0309C25.5923 58.0309 32.0041 58.0309 38.4159 58.0309C38.4879 57.7219 40.8864 54.5897 41.1799 54.1998C41.3508 53.9725 41.4657 53.7843 41.6457 53.5666L45.4191 48.4916C45.5097 48.3707 45.5678 48.2976 45.6549 48.1778C45.8679 47.8846 45.7701 47.927 45.9451 47.8636C45.9009 47.6978 45.6389 47.392 45.518 47.2465L43.2199 44.1588C43.1228 44.0185 43.1013 44.0119 43.0007 43.8833L40.9331 41.1146C40.7718 40.8774 40.6237 40.7145 40.4569 40.4916L38.6357 38.026H13.3549C13.3131 37.8694 12.6545 37.1014 12.4995 36.9029C12.2269 36.5538 11.2037 35.3552 11.0467 35.0583C11.1438 34.9131 11.2175 34.8735 11.3346 34.7417L13.3549 32.3104L15.1135 32.2852Z" fill="url(#paint0_linear_854_671)"/>
</g>
<defs>
<linearGradient id="paint0_linear_854_671" x1="22.9726" y1="25" x2="22.9726" y2="90.3396" gradientUnits="userSpaceOnUse">
<stop stop-color="#14FFEC"/>
<stop offset="1" stop-color="#8839FF"/>
</linearGradient>
<clipPath id="clip0_854_671">
<rect width="47" height="58" fill="white"/>
</clipPath>
</defs>
</svg>
